<?xml version="1.0" encoding="utf-8"?>
<!-- Generator: Adobe Illustrator 16.0.3, SVG Export Plug-In . SVG Version: 6.00 Build 0)  -->
<!DOCTYPE svg PUBLIC "-//W3C//DTD SVG 1.1//EN" "http://www.w3.org/Graphics/SVG/1.1/DTD/svg11.dtd">
<svg version="1.1" id="Layer_5" xmlns="http://www.w3.org/2000/svg" xmlns:xlink="http://www.w3.org/1999/xlink" x="0px" y="0px"
	 width="705.469px" height="351.563px" viewBox="0 0 705.469 351.563" enable-background="new 0 0 705.469 351.563"
	 xml:space="preserve">
<path fill="none" stroke="#000000" stroke-width="0.75" stroke-miterlimit="10" d="M331.406,13.5v79.85h29v83.431h-335V58H51V13.5
	H331.406z M51.406,58.083 M360.406,176.781 M25.406,176.781 M127.739,90.083h4.333V66.75 M132.073,32.084V16.75H54.406v73.333
	h56.334 M132.073,55.084V44.75 M328.406,90.083V16.75H247.74v73.333 M132.073,55.084 M132.073,66.75 M132.073,32.084 M132.073,44.75
	 M165.74,66.75v23.334h4 M186,93.5v-3.417h57.406V16.75H165.74v15.334 M165.74,55.084V44.75 M165.74,55.084 M165.74,66.75
	 M165.74,32.084 M165.74,44.75 M132.073,16.75h33.667 M132.073,76.083h33.667 M148.906,16.75v59.333 M112.74,13.75l-2.667-4H78.74
	l-3.333,4 M100.406,173.417 M100.406,142.5V137 M100.406,93.5h-49V60.917H28.74v112.5h71.667V158 M100.406,137 M100.406,122.25
	 M100.406,158 M100.406,142.5 M110.656,93.5h-10.25 M127.739,93.5h4.333h33.667h3.666 M247.656,93.5H186 M247.74,90.083
	l-0.083,3.417 M110.656,93.5l0.084-3.417 M127.739,93.5v-3.417 M169.5,93.5v-3.417 M225.073,13.75l-2.667-4h-31.333l-3.333,4
	 M314.073,13.75l-2.667-4h-42.333l-3.333,4 M100.406,122.25v-11.5h21.5v62.667h234.5V96.75h-28v-6.667 M100.406,173.417h18.5v-60
	h-18.5 M669.875,13.5V58h25.594v118.781h-335V93.35h29V13.5H669.875z M669.469,58.083 M360.469,176.781 M695.469,176.781
	 M588.803,66.75v23.334h4.333 M610.135,90.083h56.334V16.75h-77.666v15.334 M588.803,44.75v10.334 M473.135,90.083V16.75h-80.666
	v73.333 M588.803,66.75 M588.803,55.084 M588.803,44.75 M588.803,32.084 M551.135,90.083h4V66.75 M555.135,32.084V16.75h-77.666
	v73.333h57.406V93.5 M555.135,44.75v10.334 M555.135,66.75 M555.135,55.084 M555.135,44.75 M555.135,32.084 M555.135,16.75h33.668
	 M555.135,76.083h33.668 M571.969,76.083V16.75 M645.469,13.75l-3.334-4h-31.332l-2.668,4 M620.469,173.416 M620.469,137v5.5
	 M620.469,158v15.416h71.666V60.917h-22.666V93.5h-49 M620.469,122.25 M620.469,137 M620.469,142.5 M620.469,158 M620.469,93.5
	h-10.25 M551.469,93.5h3.666h33.668h4.333 M534.875,93.5h-61.656 M473.219,93.5l-0.084-3.417 M610.135,90.083l0.084,3.417
	 M593.136,90.083V93.5 M551.375,90.083V93.5 M533.135,13.75l-3.333-4h-31.333l-2.667,4 M455.136,13.75l-3.333-4h-42.334l-2.666,4
	 M392.469,90.083v6.667h-28v76.666h234.5V110.75h21.5v11.5 M620.469,113.416h-18.5v60h18.5 M50.969,340.063v-44.5H25.375V176.781
	h335v83.432h-29v79.85H50.969z M51.375,295.479 M360.375,176.781 M25.375,176.781 M132.042,286.813v-23.334h-4.333 M110.709,263.479
	H54.375v73.334h77.667v-15.334 M132.042,308.813v-10.334 M247.708,263.479v73.334h80.666v-73.334 M132.042,286.813 M132.042,298.479
	 M132.042,308.813 M132.042,321.479 M169.708,263.479h-4v23.334 M165.709,321.479v15.334h77.666v-73.334h-57.406v-3.416
	 M165.709,308.813v-10.334 M165.709,286.813 M165.709,298.479 M165.709,308.813 M165.709,321.479 M165.709,336.813h-33.667
	 M165.709,277.479h-33.667 M148.875,277.479v59.334 M75.375,339.813l3.333,4h31.333l2.667-4 M100.375,180.146 M100.375,216.563v-5.5
	 M100.375,195.563v-15.417H28.708v112.5h22.667v-32.583h49 M100.375,231.313 M100.375,216.563 M100.375,211.063 M100.375,195.563
	 M100.375,260.063h10.25 M169.375,260.063h-3.666h-33.667h-4.333 M185.969,260.063h61.656 M247.625,260.063l0.083,3.416
	 M110.625,260.063l0.084,3.416 M127.708,263.479v-3.416 M169.469,263.479v-3.416 M187.708,339.813l3.333,4h31.333l2.667-4
	 M265.708,339.813l3.333,4h42.333l2.667-4 M328.375,263.479v-6.666h28v-76.667h-234.5v62.667h-21.5v-11.5 M100.375,240.146h18.5v-60
	h-18.5 M389.438,340.063v-79.85h-29v-83.432h335v118.781h-25.594v44.5H389.438z M669.438,295.479 M360.438,176.781 M695.438,176.781
	 M593.104,263.479h-4.333v23.334 M588.771,321.479v15.334h77.666v-73.334h-56.334 M588.771,298.479v10.334 M392.438,263.479v73.334
	h80.666v-73.334 M588.771,298.479 M588.771,321.479 M588.771,308.813 M555.104,286.813v-23.334h-4 M534.844,260.063v3.416h-57.406
	v73.334h77.666v-15.334 M555.104,298.479v10.334 M555.104,298.479 M555.104,286.813 M555.104,321.479 M555.104,308.813
	 M588.771,336.813h-33.668 M588.771,277.479h-33.668 M571.938,336.813v-59.334 M608.104,339.813l2.668,4h31.332l3.334-4
	 M620.438,180.146 M620.438,211.063v5.5 M620.438,260.063h49v32.583h22.666V180.146h-71.666v15.416 M620.438,216.563
	 M620.438,231.313 M620.438,195.563 M620.438,211.063 M610.188,260.063h10.25 M551.438,260.063h3.666h33.668h4.333 M473.188,260.063
	h61.656 M473.104,263.479l0.084-3.416 M610.188,260.063l-0.084,3.416 M593.104,260.063v3.416 M551.344,260.063v3.416
	 M495.771,339.813l2.667,4h31.333l3.333-4 M406.771,339.813l2.666,4h42.334l3.333-4 M620.438,231.313v11.5h-21.5v-62.667h-234.5
	v76.666h28v6.666 M620.438,180.146h-18.5v60h18.5"/>
<rect x="54.406" y="16.75" fill="none" stroke="#000000" stroke-width="0.75" stroke-miterlimit="10" width="77.667" height="73.333"/>
<rect x="165.74" y="16.75" fill="none" stroke="#000000" stroke-width="0.75" stroke-miterlimit="10" width="77.666" height="73.333"/>
<rect x="247.74" y="16.75" fill="none" stroke="#000000" stroke-width="0.75" stroke-miterlimit="10" width="80.666" height="73.333"/>
<rect x="392.469" y="16.75" fill="none" stroke="#000000" stroke-width="0.75" stroke-miterlimit="10" width="80.666" height="73.333"/>
<rect x="477.469" y="16.75" fill="none" stroke="#000000" stroke-width="0.75" stroke-miterlimit="10" width="77.666" height="73.333"/>
<rect x="588.803" y="16.75" fill="none" stroke="#000000" stroke-width="0.75" stroke-miterlimit="10" width="77.666" height="73.333"/>
<rect x="588.771" y="263.479" fill="none" stroke="#000000" stroke-width="0.75" stroke-miterlimit="10" width="77.666" height="73.334"/>
<rect x="477.438" y="263.479" fill="none" stroke="#000000" stroke-width="0.75" stroke-miterlimit="10" width="77.666" height="73.334"/>
<rect x="392.438" y="263.479" fill="none" stroke="#000000" stroke-width="0.75" stroke-miterlimit="10" width="80.666" height="73.334"/>
<rect x="247.708" y="263.479" fill="none" stroke="#000000" stroke-width="0.75" stroke-miterlimit="10" width="80.666" height="73.334"/>
<rect x="165.709" y="263.479" fill="none" stroke="#000000" stroke-width="0.75" stroke-miterlimit="10" width="77.666" height="73.334"/>
<rect x="54.375" y="263.479" fill="none" stroke="#000000" stroke-width="0.75" stroke-miterlimit="10" width="77.667" height="73.334"/>
</svg>
