<?xml version="1.0" encoding="UTF-8" standalone="no"?>
<!-- Created with Inkscape (http://www.inkscape.org/) -->

<svg
   xmlns:dc="http://purl.org/dc/elements/1.1/"
   xmlns:cc="http://creativecommons.org/ns#"
   xmlns:rdf="http://www.w3.org/1999/02/22-rdf-syntax-ns#"
   xmlns:svg="http://www.w3.org/2000/svg"
   xmlns="http://www.w3.org/2000/svg"
   xmlns:sodipodi="http://sodipodi.sourceforge.net/DTD/sodipodi-0.dtd"
   xmlns:inkscape="http://www.inkscape.org/namespaces/inkscape"
   width="340.35779"
   height="317.3696"
   id="svg2"
   version="1.1"
   inkscape:version="0.48.4 r9939"
   sodipodi:docname="New document 1">
  <defs
     id="defs4" />
  <sodipodi:namedview
     id="base"
     pagecolor="#ffffff"
     bordercolor="#666666"
     borderopacity="1.0"
     inkscape:pageopacity="0.0"
     inkscape:pageshadow="2"
     inkscape:zoom="0.82526557"
     inkscape:cx="177.63832"
     inkscape:cy="428.11353"
     inkscape:document-units="px"
     inkscape:current-layer="layer1"
     showgrid="false"
     inkscape:window-width="1920"
     inkscape:window-height="1017"
     inkscape:window-x="-8"
     inkscape:window-y="-8"
     inkscape:window-maximized="1"
     fit-margin-top="0"
     fit-margin-left="0"
     fit-margin-right="0"
     fit-margin-bottom="0" />
  <metadata
     id="metadata7">
    <rdf:RDF>
      <cc:Work
         rdf:about="">
        <dc:format>image/svg+xml</dc:format>
        <dc:type
           rdf:resource="http://purl.org/dc/dcmitype/StillImage" />
        <dc:title></dc:title>
      </cc:Work>
    </rdf:RDF>
  </metadata>
  <g
     inkscape:label="Layer 1"
     inkscape:groupmode="layer"
     id="layer1"
     transform="translate(-8.3316181,-722.69734)">
    <path
       style="fill:#000000;fill-opacity:1;fill-rule:nonzero;stroke:none"
       id="path2991"
       d="m 52.374828,781.41437 c 1.10151,-4.02476 2.42478,-7.16278 5.88152,-9.62855 3.45157,-1.91342 6.33491,-3.98206 9.88664,-5.27105 1.02268,-0.37115 1.64068,-0.46948 2.62308,-0.94569 0.38304,-0.18568 1.47243,-0.85485 1.1003,-0.64816 -2.04707,1.137 -4.08361,2.29283 -6.12542,3.43925 2.5965,-1.7063 4.22212,-4.31678 6.06122,-6.73377 2.03604,-2.72945 4.25135,-5.31167 6.54887,-7.82209 2.15466,-2.37662 4.45259,-4.60959 6.8525,-6.73591 0.49645,-0.41392 1.45713,-1.25007 2.02427,-1.58609 2.72912,-1.61693 5.49212,-3.17609 8.24978,-4.74382 0.35948,-0.20436 1.45754,-0.78103 1.10078,-0.57198 -2.45738,1.43997 -16.86519,9.62958 2.28047,-1.27018 4.084902,-2.36529 -3.21152,1.86374 -4.82224,2.72831 -0.43176,0.23176 0.8125,-0.54847 1.2081,-0.83767 1.21889,-0.89106 2.40858,-1.8242 3.62721,-2.7167 4.581482,-3.00693 9.111952,-6.42412 14.511852,-7.65904 2.65751,-0.47055 5.37042,-0.43377 8.05977,-0.44745 2.30322,-0.22231 4.38404,-1.30758 6.40315,-2.35751 -16.46419,9.42741 1.23406,-0.71599 1.85435,-1.06828 2.06967,-1.17543 -4.11611,2.39163 -6.19132,3.55725 -0.36893,0.20723 0.70515,-0.46889 1.07112,-0.68129 8.50125,-4.93378 5.47952,-3.64363 9.79087,-5.38139 2.97416,-0.93715 6.08941,-1.17295 9.18622,-1.28343 2.84635,-0.0705 5.6939,-0.0517 8.54082,-0.0422 4.21772,0.0341 8.43396,-0.0431 12.64532,0.20743 4.47006,0.34228 8.49922,0.24596 12.71081,1.90845 2.10958,0.55963 3.37007,2.33267 5.01693,3.60995 2.18788,1.3737 4.84151,1.38798 7.34219,1.51228 3.16865,0.0679 6.29325,0.67764 9.44419,0.98968 2.88472,0.63584 5.68048,1.64094 8.46967,2.60686 2.2867,1.22185 3.90377,1.99165 6.51888,1.87206 2.45449,-0.24523 4.91298,-0.39698 7.37778,-0.48015 3.38373,-0.49353 6.70498,-1.09234 10.10532,-0.54177 3.42558,1.1897 6.89169,2.32194 10.2968,3.58202 2.43062,0.75191 4.75857,1.68685 7.02672,2.8284 2.23735,1.08448 4.7177,1.14873 7.1517,1.26049 2.94411,0.17957 5.94851,0.50299 8.82909,1.16602 2.36519,0.76963 4.86727,0.84499 7.27345,1.38411 2.99419,0.84661 6.0427,1.4313 9.07673,2.11804 3.17522,0.44615 5.66668,1.78424 7.64599,4.27307 1.88661,2.57448 3.32336,5.42852 4.8591,8.21495 1.70577,3.06276 4.10007,5.636 6.05284,8.52975 1.47175,2.56887 3.15977,5.018 4.90881,7.40618 2.20624,2.5798 3.64388,5.59723 4.95025,8.69745 1.37875,3.71679 2.74715,7.42513 3.57059,11.30912 0.30069,2.90809 1.21123,5.61594 2.2939,8.30657 0.91006,2.95189 1.83909,5.90847 2.4914,8.93099 0.59051,2.74514 1.01462,5.52932 1.61706,8.27139 0.56297,2.74568 1.34141,5.42992 2.44451,8.00689 1.7394,2.47891 3.81244,4.80236 6.3008,6.54633 1.85219,1.26194 3.58695,2.65001 5.32383,4.0661 2.09745,1.81208 2.59385,4.25384 2.90415,6.87693 0.51627,3.29486 -0.21135,6.55987 -0.33476,9.84327 0.0234,3.05457 1.28962,5.50677 2.93616,7.96743 1.68183,1.68953 2.73204,3.61748 3.29182,5.91448 0.88058,3.08392 1.17755,6.27165 1.38445,9.45854 0.18077,3.20594 0.3333,6.40083 -0.0942,9.58898 -0.54421,2.17194 -1.5179,4.19371 -1.65835,6.44888 -0.004,2.1494 0.91316,4.10094 2.53774,5.48661 1.81789,1.59313 2.79978,3.89898 3.50625,6.16067 0.69218,2.5555 0.45586,5.18699 -1.00828,7.40439 -3.25792,3.13977 -8.37877,5.38208 -11.92012,7.44977 -1.79584,1.04854 3.57716,-2.12408 5.40747,-3.11123 0.56553,-0.30501 -1.07233,0.70821 -1.60849,1.06232 -3.32505,2.16796 -5.45166,5.36499 -7.16457,8.86227 -1.37672,3.54809 -2.01119,7.33251 -2.78461,11.04814 -0.6431,2.58317 -1.51827,5.16455 -3.62491,6.88447 -5.47293,3.83317 -9.66456,5.52344 -15.83717,6.14833 -1.73145,0.0808 -3.49241,0.21626 -5.14406,0.791 -1.56207,0.54355 -11.03121,5.91158 3.27079,-1.75959 -2.1857,1.98564 -2.94982,4.75044 -3.78393,7.47093 -1.0767,2.50911 -1.72147,5.15696 -2.35007,7.80464 -1.18721,4.23089 -1.8832,8.5848 -3.07904,12.80847 -1.09767,3.49914 -2.17049,6.99713 -3.65139,10.35556 -1.08598,2.25668 -2.65868,4.26433 -4.39263,6.05932 -2.02031,1.94099 -4.19255,3.65555 -6.5917,5.09643 -4.04831,2.6 -7.0034,4.7487 -11.36123,5.5377 -1.6444,0.2978 -3.15476,0.5689 -4.74875,1.0896 -2.76377,0.8455 -5.50608,1.73 -8.03201,3.1515 -4.40105,2.5627 3.00301,-1.76 4.21952,-2.3189 0.63467,-0.2915 -1.10068,0.8603 -1.64135,1.3024 -1.75992,1.4392 -3.46283,2.9471 -5.16495,4.4534 -4.67712,4.5905 -10.58538,7.3062 -16.26637,10.4671 -3.28602,1.1415 -6.44601,2.5852 -9.80452,3.5086 -2.99923,0.5993 -6.0392,1.0175 -9.01497,1.7363 -3.58085,0.8542 -7.03052,2.1782 -10.50408,3.3852 -3.0425,0.8839 -5.94371,2.0885 -9.08912,2.5729 -4.23895,0.4335 -8.5177,0.3475 -12.77443,0.3563 -5.60746,0.115 -11.0488,1.5798 -16.52035,2.6572 -1.79283,0.1932 -3.60952,0.7936 -5.42973,0.7553 -1.91825,-0.04 -3.90325,-0.6414 -5.73823,-1.1292 -3.88076,-1.3896 -7.85397,-2.4654 -11.92515,-3.1051 -3.22225,-0.7737 -6.5018,-1.1936 -9.80149,-1.4391 -2.59812,-0.3997 -4.90653,0.5705 -7.30065,1.366 -2.63391,0.792 -5.40799,0.783 -8.13221,0.8532 -3.25305,0.2366 -6.43639,-0.031 -9.64153,-0.5459 -2.23272,-0.2166 -4.41249,-0.7628 -6.50321,-1.5709 -2.01069,-0.5457 -3.55339,-1.9787 -5.35814,-2.9248 -2.11597,-0.9909 -4.135042,-2.2084 -6.268242,-3.2002 -2.85558,-1.0225 -5.59001,-2.3372 -8.41861,-3.4295 -3.27339,-1.466 -6.76159,-2.3652 -10.14763,-3.5224 -2.75169,-1.1759 -5.22668,-2.6477 -7.32534,-4.7854 -2.1484,-2.0007 -3.76633,-4.4524 -5.186,-6.9996 -1.35662,-2.8508 -3.44536,-5.0089 -5.74525,-7.1102 -2.896,-2.95459 -6.54688,-4.8324 -10.19707,-6.66711 -2.4857,-1.382 -5.23921,-1.88911 -7.91485,-2.71066 -2.47028,-0.50857 -3.76458,-1.98961 -4.47652,-4.30986 -0.16685,-2.55344 -1.25672,-4.37658 -3.05948,-6.10872 -2.02011,-1.98414 -4.66052,-3.09018 -6.94385,-4.71077 -1.72574,-1.51956 -2.24451,-3.81345 -3.07104,-5.86994 -0.73967,-2.58527 -2.51936,-4.59528 -3.76471,-6.92131 -1.46,-1.8994 -2.00882,-4.16032 -2.76153,-6.36987 -0.76753,-2.28387 -2.82802,-3.85516 -4.49121,-5.50226 -2.09893,-1.50228 -3.8096499,-2.96094 -4.5097299,-5.5292 -0.22544,-2.36316 -0.11268,-4.7928 0.27426,-7.13514 0.5767499,-2.07393 0.9334999,-4.18072 1.1229599,-6.32209 0.31178,-2.37808 0.0412,-4.69558 -0.3471,-7.03941 -0.22943,-2.13432 -1.3222399,-4.00777 -1.0941899,-6.1769 0.43117,-1.9528 1.1654799,-3.80029 1.8594799,-5.66699 0.70731,-2.07416 0.82328,-4.27071 0.91456,-6.44115 0.0687,-2.4059 0.0545,-4.8132 0.0502,-7.2198 -0.27347,-2.97009 0.22076,-5.25791 1.36661,-7.98615 0.79991,-2.745 2.62765,-4.88124 4.15516,-7.21975 1.13254,-2.07899 1.65008,-4.43991 2.20811,-6.72688 0.60392,-2.75278 0.66428,-5.58397 0.72908,-8.38998 -0.0673,-3.16663 -0.71346,-6.17564 -1.78794,-9.13564 -1.27443,-2.67625 -3.6388,-4.42082 -6.13198,-5.87825 -2.6002099,-1.78143 -3.4421499,-4.4211 -3.9056499,-7.38777 -0.33349,-3.28476 -0.3235,-6.59137 -0.32135,-9.88923 0.16828,-3.05815 1.19655,-5.98783 2.5146399,-8.72726 0.87654,-1.99798 2.26359,-3.56586 3.83067,-5.03156 1.68141,-1.7229 2.70928,-3.92572 3.55953,-6.14785 0.65065,-2.60277 2.01005,-4.89087 3.57055,-7.03757 1.65131,-1.81812 3.64251,-3.28689 5.59749,-4.75879 4.26679,-3.29414 17.1388,-9.45941 3.49628,-2.25267 -0.43524,0.22992 0.81481,-0.5525 1.22022,-0.83167 1.52693,-1.05142 0.93193,-0.61394 2.33223,-1.74681 2.74672,-2.02241 4.12524,-5.06177 5.15372,-8.21402 1.00729,-3.47717 0.87597,-7.15775 2.42318,-10.46546 3.11907,-3.69228 7.73212,-6.41668 12.449,-7.56362 1.80894,-0.98265 3.87098,-1.09257 5.81009,-1.6347 0.37266,-0.0958 0.74533,-0.19162 1.11799,-0.28743 0,0 -6.67733,5.11182 -6.67733,5.11182 l 0,0 c -0.37414,0.0953 -0.74828,0.19069 -1.12242,0.28604 -1.97055,0.44113 -3.93092,0.85717 -5.79666,1.6614 -2.83976,0.9563 -7.05307,3.61588 4.46984,-2.95022 1.47016,-0.83774 -3.83278,2.03455 -2.59044,1.93027 -1.86517,3.15072 -1.57124,6.88831 -2.53928,10.34569 -0.9143,3.20165 -2.19025,6.53828 -4.9189,8.63045 -3.87337,3.47229 -20.83032,12.63299 -5.89362,4.16918 0.38685,-0.21921 -0.74313,0.48845 -1.11469,0.73268 -2.02878,1.31021 -3.82767,2.98044 -5.7043,4.50205 -1.53278,2.09504 -3.1121,4.22535 -3.66769,6.82083 -0.78852,2.30148 -1.80708,4.60345 -3.40368,6.46191 -1.50123,1.74198 0.17872,-0.0665 -1.43784,1.28943 -1.09412,0.9177 -1.79406,2.33012 -2.50836,3.52884 -1.42175,2.56839 -2.3968,5.44617 -2.69294,8.37199 -0.0174,3.26043 -0.0511,6.52946 0.25714,9.77911 0.39272,2.74104 1.07442,5.15996 3.5399,6.74622 2.61985,1.61841 5.06792,3.5189 6.41974,6.37178 1.10996,3.05543 1.81205,6.14229 1.93092,9.41027 -0.0536,2.85218 -0.0889,5.72831 -0.6318,8.53844 -0.53453,2.36254 -1.11281,4.76335 -2.09526,6.97795 -1.4224,2.37987 -3.46934,4.35578 -4.22418,7.10942 -1.21493,2.78042 -1.80865,4.58573 -1.49696,7.6699 0.005,2.41607 0.0193,4.83257 -0.033,7.24826 -0.0737,2.23809 -0.16214,4.50095 -0.79285,6.66543 -0.6267,1.85747 -1.44734,3.62698 -1.91123,5.54181 -0.57456,2.04939 0.84047,3.87447 0.94321,5.92814 0.40219,2.40444 0.76244,4.77469 0.44682,7.2206 -0.16021,2.16751 -0.43263,4.32324 -1.07769,6.40794 -0.5199,2.2066 -0.48265,4.55221 -0.44314,6.80848 0.52306,2.45108 2.42063,3.64303 4.26539,5.13627 1.75722,1.73372 3.8907,3.42184 4.70358,5.82577 0.75178,2.16331 1.22715,4.40113 2.67718,6.26389 1.253,2.35189 3.07084,4.37914 3.81701,6.99245 0.77839,1.89294 1.21639,4.06852 2.82609,5.45257 2.34165,1.60255 4.96228,2.81863 7.00155,4.83613 1.85288,1.825 3.15644,3.79067 3.29891,6.46946 0.59169,2.13976 1.81934,3.14407 4.02158,3.60346 2.73505,0.77231 5.4657,1.4696 7.98271,2.85372 3.67714,1.91969 7.35079,3.87866 10.29907,6.8646 2.37684,2.15241 4.51114,4.39961 5.92223,7.32101 1.38232,2.4812 2.94277,4.8715 5.05304,6.8071 2.04856,1.9993 4.46155,3.3863 7.1108,4.4657 3.40702,1.1305 6.8727,2.1217 10.16962,3.556 2.83687,1.1242 5.618342,2.3812 8.471462,3.4643 2.13293,1.0281 4.17787,2.2189 6.31389,3.2315 1.73249,0.9965 3.30984,2.2888 5.27977,2.8203 2.08346,0.7056 4.20515,1.2329 6.3997,1.4474 3.16468,0.4966 6.32354,0.6331 9.52708,0.4337 2.69982,-0.097 5.43912,-0.1738 8.01669,-1.0756 2.43754,-0.8339 4.87279,-1.4612 7.48213,-1.0759 3.3102,0.2895 6.59008,0.7757 9.83446,1.5027 4.0691,0.719 8.02633,1.8707 11.94489,3.1754 3.71087,0.8913 7.20688,1.0903 10.94111,0.083 5.49044,-1.0788 10.96773,-2.4667 16.59666,-2.5164 4.25029,-0.024 8.5323,0.064 12.75185,-0.5159 3.07854,-0.6068 5.97774,-1.7763 8.98161,-2.6614 3.48674,-1.2189 6.96595,-2.5164 10.57646,-3.3227 2.98795,-0.637 6.01294,-1.0945 8.9896,-1.7773 3.30686,-0.9991 6.48421,-2.3687 9.70464,-3.6097 -12.70124,7.6168 -0.0953,0.5015 1.99851,-2.1023 5.38699,-4.805 9.89452,-8.7096 16.85291,-11.8423 2.59378,-1.2988 5.35027,-2.1795 8.1232,-3.0155 1.58761,-0.443 3.17561,-0.6877 4.77831,-1.0523 3.01772,-0.6865 8.32314,-3.80747 -3.13452,2.5661 2.40326,-1.4117 4.64565,-2.9579 6.65646,-4.91081 1.80899,-1.63847 3.32797,-3.65583 4.52962,-5.77059 1.51322,-3.3339 2.66871,-6.77861 3.74746,-10.27804 1.29436,-4.17163 1.86544,-8.53831 3.06583,-12.74306 0.58325,-2.66023 1.15944,-5.36468 2.30917,-7.84754 0.82521,-2.80893 1.55655,-5.71221 3.60412,-7.91882 6.37551,-3.99826 9.28094,-6.91811 16.3658,-7.17471 1.59892,-0.19282 3.17546,-0.39872 4.73208,-0.82893 2.98733,-0.82562 8.07186,-3.71723 -3.44725,2.74228 2.38329,-1.25896 3.1908,-3.8192 3.90649,-6.29404 0.78027,-3.77495 1.49854,-7.58827 2.73436,-11.2417 1.62193,-3.5953 3.68391,-6.96734 6.98041,-9.26822 4.33346,-3.04178 18.24745,-10.50583 4.93745,-3.03879 -0.79846,0.44794 1.60749,-0.88032 2.37547,-1.37872 0.3138,-0.20364 0.57099,-0.48347 0.85648,-0.72521 1.71833,-1.82136 1.95819,-4.29966 1.37143,-6.68107 -0.63839,-2.13921 -1.55333,-4.28002 -3.29033,-5.7603 -1.71102,-1.61664 -2.81642,-3.73503 -2.88857,-6.12253 -0.0132,-2.30757 0.85135,-4.40049 1.63047,-6.54459 0.48253,-3.13919 0.38704,-6.28012 0.19859,-9.44783 -0.19636,-3.13786 -0.45997,-6.28457 -1.36243,-9.31333 -0.49306,-2.2249 -1.54135,-4.01107 -3.12873,-5.66029 -1.72827,-2.60537 -3.06231,-5.21403 -3.16734,-8.42557 0.035,-3.25455 0.89158,-6.47211 0.38302,-9.73892 -0.2626,-2.41248 -0.62501,-4.6631 -2.60304,-6.29865 -1.72953,-1.3972 -3.46585,-2.76171 -5.28904,-4.03478 -2.54328,-1.90928 -4.73043,-4.31363 -6.51781,-6.93895 -1.14343,-2.61673 -1.96613,-5.33964 -2.52707,-8.14039 -0.63047,-2.7382 -1.02732,-5.53519 -1.62484,-8.28056 -0.61143,-2.98416 -1.53215,-5.8936 -2.41435,-8.8052 -1.10274,-2.73406 -2.09664,-5.47527 -2.36239,-8.44184 -0.76119,-3.84569 -2.08666,-7.51335 -3.46286,-11.1775 -1.30055,-3.03059 -2.72252,-5.98538 -4.89021,-8.51001 -1.75372,-2.39718 -3.4386,-4.85994 -4.90744,-7.44221 -1.97832,-2.90563 -4.37261,-5.5119 -6.08833,-8.59713 -1.51839,-2.74126 -2.93711,-5.55091 -4.81451,-8.07341 -1.89771,-2.33117 -4.34758,-3.37158 -7.31076,-3.81285 -3.04918,-0.64529 -6.07416,-1.34059 -9.09795,-2.08735 -2.42832,-0.43883 -4.89122,-0.69471 -7.26886,-1.39757 -2.87658,-0.56281 -5.81568,-0.94688 -8.74424,-1.06336 -2.53535,-0.14613 -5.08115,-0.32131 -7.37323,-1.53125 -2.23554,-1.1285 -4.57751,-1.95495 -6.94584,-2.76318 -3.37359,-1.2051 -6.74377,-2.48314 -10.18938,-3.43837 -3.38083,-0.36696 -6.67447,0.32208 -10.03549,0.67006 -2.47361,0.1043 -4.93693,0.32703 -7.40775,0.47054 -2.44061,-0.0694 -4.51102,-1.02837 -6.66705,-2.11976 -2.73736,-0.95776 -5.50015,-1.94542 -8.36213,-2.44571 -3.13251,-0.34481 -6.24671,-0.92264 -9.40481,-0.96789 -2.66255,-0.16445 -5.42245,-0.30494 -7.66669,-1.91756 -1.55956,-1.27015 -2.82644,-2.87146 -4.85913,-3.40711 -3.99976,-1.49862 -8.27246,-1.40536 -12.4864,-1.74403 -4.23072,-0.19188 -8.46318,-0.10014 -12.69746,-0.11954 -2.83524,-0.0112 -5.67169,-0.0339 -8.50573,0.0661 -3.04913,0.15998 -6.1288,0.42243 -9.00523,1.52861 -3.12891,1.44153 -3.0234,1.44592 4.61623,-2.8815 0.36918,-0.20911 -0.68326,0.50585 -1.04869,0.72145 -2.72128,1.60553 -5.45694,3.18702 -8.20846,4.74017 -2.09787,1.18419 8.34465,-4.81851 6.24741,-3.63321 -2.72069,1.53766 -5.4119,3.12689 -8.11785,4.69034 -2.0671,1.05933 -4.27216,1.95294 -6.62289,2.02911 -2.65544,0.026 -5.34265,0.0135 -7.94433,0.61693 -1.06286,0.30399 -1.35414,0.34885 -2.37646,0.7984 -0.40471,0.17796 -1.56772,0.81568 -1.18944,0.58685 11.33432,-6.85638 6.00518,-3.48278 3.52345,-1.926 -4.59303,3.37213 -9.068432,6.8375 -14.356162,9.18108 20.703792,-12.07598 -17.9202,10.12935 2.73477,-1.7537 0.73782,-0.42448 -2.97111,1.82715 -2.06055,1.50837 -2.46869,2.03888 -4.72892,4.31356 -6.91333,6.65368 -2.30602,2.4834 -4.5527,5.02437 -6.56363,7.75661 -1.92907,2.3775 -3.39669,5.14418 -5.95089,6.9603 -3.11448,1.85287 -6.0641,4.0461 -9.39939,5.46343 -0.53477,0.22725 -2.06664,0.7458 -2.6088,0.95801 -0.44753,0.17517 -1.73093,0.82226 -1.32923,0.55843 1.90139,-1.24882 3.89619,-2.34925 5.84429,-3.52387 -3.67315,2.15421 -5.08446,5.02616 -6.09213,9.10398 0,0 -7.59927,3.5689 -7.59927,3.5689 z"
       inkscape:connector-curvature="0" />
    <path
       style="fill:#000000"
       id="path3761"
       d="m 86.930768,826.48456 c 3.55579,2.05639 6.71303,4.64767 9.82907,7.29605 2.08631,1.92678 3.972932,4.05586 6.236902,5.7813 1.56835,1.52508 3.58556,2.41628 5.28716,3.76137 1.57952,1.30272 3.47561,2.03891 5.12851,3.2251 2.29884,1.73458 4.7554,3.23659 7.0723,4.93875 2.09477,1.53354 4.17243,3.06903 6.37062,4.45438 1.39639,1.36495 2.79836,2.72369 4.22556,4.06735 1.49269,1.13976 3.28037,1.95557 5.05176,2.58415 2.06566,0.97416 4.30228,1.4727 6.48272,2.12046 2.42589,0.50693 4.77915,1.27496 7.21603,1.73654 2.16241,0.35725 4.22007,1.08369 6.39785,1.40177 2.048,0.27211 4.00438,0.932 6.06053,1.21756 2.31706,0.57944 4.15354,-0.34134 6.25528,-1.11943 2.62179,-1.52992 7.18176,-4.10166 -4.8859,2.79293 0,0 7.84798,-3.06911 7.84798,-3.06911 l 0,0 c -3.13206,1.83446 -6.24632,3.91572 -9.57733,5.45453 -2.15811,0.81785 -4.19013,1.31705 -6.51047,0.77593 -2.04061,-0.33706 -4.00675,-0.99036 -6.06337,-1.22374 -2.16406,-0.37711 -4.23564,-1.10072 -6.40648,-1.43545 -2.44078,-0.51534 -4.83137,-1.23657 -7.26081,-1.79973 -2.19851,-0.65936 -4.4435,-1.18364 -6.5328,-2.15914 -1.83788,-0.73649 -3.71377,-1.56378 -5.22618,-2.85963 -1.4081,-1.29476 -2.72969,-2.66928 -4.14241,-3.94375 -2.17637,-1.43204 -4.26383,-2.97032 -6.36207,-4.51133 -2.35042,-1.65757 -4.75684,-3.23162 -7.09601,-4.90787 -1.68975,-1.13878 -3.58885,-1.92701 -5.15935,-3.25273 -1.733002,-1.29296 -3.693042,-2.27066 -5.262662,-3.7827 -2.234,-1.77481 -4.15999,-3.87499 -6.22832,-5.83388 -3.0588,-2.65184 -6.20538,-5.19996 -9.785,-7.13541 0,0 7.03689,-4.57427 7.03689,-4.57427 z"
       inkscape:connector-curvature="0" />
    <path
       style="fill:#000000"
       id="path3763"
       d="m 197.09416,863.04283 c 2.70071,2.25503 5.29782,4.67709 8.43561,6.31201 2.32838,1.20662 4.62686,2.39229 7.1755,3.05068 2.74849,0.51779 5.5539,0.56342 8.34159,0.59935 2.41514,-0.49725 4.94772,-0.54216 7.31511,-1.23003 1.98507,-0.80694 4.17272,-0.72226 6.19682,-1.3117 1.94365,-0.75789 4.07256,-0.65215 6.04813,-1.21737 1.80234,-0.49333 3.64848,-1.07029 5.26591,-2.02391 0.26928,-0.13437 0.5319,-0.28303 0.80784,-0.40312 2.11279,-0.91948 -0.2986,0.29587 1.62735,-0.79911 0.26032,-0.148 1.05732,-0.56223 0.79844,-0.41173 -1.88066,1.09333 -17.63129,10.08003 1.76621,-0.99464 -12.71492,7.69409 -4.43914,2.42101 -1.66136,0.36241 2.13188,-1.51498 3.08328,-3.5619 3.58952,-6.0481 0.29795,-2.69652 0.37013,-5.37831 1.03507,-8.02031 1.07641,-2.57505 2.43391,-5.06065 3.83819,-7.4775 1.67039,-2.38127 3.84376,-4.37894 6.04531,-6.26226 4.2436,-3.43255 8.97095,-6.06289 13.68527,-8.80413 0,0 -6.54115,5.28022 -6.54115,5.28022 l 0,0 c 13.22086,-7.77681 3.38355,-1.90969 0.61736,0.39658 -2.24241,1.77496 -4.3121,3.80571 -6.15143,5.99493 -1.44076,2.34444 -2.65253,4.83641 -3.92633,7.26867 -0.77909,2.6029 -0.84172,5.26534 -1.06972,7.95624 -0.42577,2.59496 -1.15665,4.92066 -3.33025,6.5986 -3.85591,3.17866 -8.45505,5.43601 -12.67873,8.01982 14.84263,-8.64393 -0.16839,0.43231 -5.01605,2.60597 -1.74174,0.77195 -3.5116,1.476 -5.38589,1.85719 -2.02209,0.37557 -4.07878,0.57262 -6.04511,1.22093 -2.07202,0.39833 -4.17687,0.63007 -6.18894,1.30994 -2.44744,0.49147 -4.94616,0.81719 -7.42956,1.04639 -2.83406,-0.0607 -5.6913,-0.13984 -8.46737,-0.76998 -2.56191,-0.75492 -4.911,-1.97654 -7.26804,-3.21792 -3.12508,-1.76321 -5.74232,-4.22148 -8.54779,-6.43664 0,0 7.11849,-4.45148 7.11849,-4.45148 z"
       inkscape:connector-curvature="0" />
    <path
       style="fill:#000000"
       id="path3765"
       d="m 90.133758,838.22029 c 1.38054,3.94583 2.03853,8.07346 2.945,12.13645 0.59265,3.40328 1.51147,6.72368 2.42977,10.04847 0.84548,3.19963 1.90504,6.32142 2.93066,9.46368 0.71244,2.43344 1.874532,4.77172 3.143992,6.9679 1.38066,2.39353 2.99039,4.68201 4.6863,6.86479 1.40187,1.95873 2.91388,3.87569 4.65788,5.54322 1.93248,1.70113 4.14465,3.06026 6.30206,4.45662 2.22992,1.26868 4.70352,2.11212 7.17226,2.79337 2.68732,0.67388 5.37014,1.29366 8.12216,1.64027 2.42352,0.29354 4.80082,0.40106 7.18986,-0.10542 3.34776,-0.64161 10.76472,-5.3134 -1.99974,1.90828 1.5953,-1.18707 3.2788,-2.26072 4.85058,-3.47869 1.50714,-1.66379 2.74838,-3.55293 4.04217,-5.38472 1.04523,-1.94831 2.29957,-3.77833 3.37369,-5.71043 1.24973,-2.26714 2.67463,-4.42612 3.99849,-6.6515 0.19406,-0.32909 0.38812,-0.65818 0.58217,-0.98727 0,0 7.66878,-3.41289 7.66878,-3.41289 l 0,0 c -0.19232,0.33766 -0.38464,0.67532 -0.57696,1.01298 -1.39726,2.15548 -2.65807,4.40931 -4.016,6.59113 -0.98883,2.01246 -2.42161,3.75451 -3.32752,5.8147 -1.32704,1.85982 -2.65368,3.70759 -3.94935,5.58813 -1.51369,1.31497 -3.25567,2.29776 -4.82094,3.54346 -3.97449,2.3465 -7.87289,5.37539 -12.53186,6.22902 -2.4358,0.38525 -4.88708,0.16577 -7.32639,-0.12428 -2.77143,-0.40049 -5.48804,-1.04018 -8.19911,-1.7364 -2.51799,-0.75845 -5.0503,-1.61694 -7.29942,-3.00243 -2.20708,-1.41843 -4.45614,-2.82455 -6.40581,-4.58935 -1.74038,-1.72781 -3.3002,-3.64628 -4.705442,-5.65427 -1.69642,-2.22919 -3.35892,-4.52143 -4.74257,-6.95786 -1.30426,-2.24099 -2.5076,-4.63858 -3.23632,-7.12279 -0.99783,-3.16486 -2.04128,-6.30643 -2.91555,-9.5105 -0.92591,-3.33763 -1.87656,-6.66418 -2.44723,-10.08731 -0.89453,-4.02253 -1.44181,-8.13973 -2.92765,-12.01284 0,0 7.33204,-4.07352 7.33204,-4.07352 z"
       inkscape:connector-curvature="0" />
    <path
       style="fill:#000000"
       id="path3767"
       d="m 211.52976,875.36998 c 2.80256,3.47312 4.78401,7.46998 6.87102,11.38445 1.91143,3.14866 3.53478,6.47904 5.69669,9.46859 1.62402,2.20397 2.79561,4.69897 4.42967,6.89074 1.49555,1.72217 3.09043,2.90586 5.3023,3.46222 2.53333,0.34014 5.06373,0.3796 7.59382,0.77321 2.55306,0.43972 5.13588,0.62241 7.72123,0.72082 2.1873,0.0944 4.36887,-0.44579 6.302,-1.45158 -12.36126,7.3522 -3.83019,2.29801 -1.30617,-0.0559 1.52484,-1.6824 2.98164,-3.3724 4.16628,-5.31226 1.00184,-2.04215 1.95813,-4.10634 2.97894,-6.14236 0.87247,-1.92739 1.82217,-3.77467 2.31986,-5.84055 0.40719,-2.30768 0.99258,-4.57039 1.31914,-6.8934 0.29037,-2.39625 0.32068,-4.81276 0.34567,-7.22321 -0.0232,-2.46092 0.1078,-4.92714 -0.11727,-7.37982 -0.23826,-2.78198 -1.08043,-5.44525 -1.64844,-8.16565 -0.76307,-2.27583 -1.18948,-4.63023 -1.93239,-6.91011 -0.73501,-2.15679 -0.94883,-4.42166 -1.07953,-6.68093 0.0211,-1.22786 0.24578,-2.43691 0.43724,-3.64571 0,0 7.53469,-3.68947 7.53469,-3.68947 l 0,0 c -0.18795,1.15869 -0.4027,2.31471 -0.51394,3.48423 0.11011,2.18993 0.28213,4.39057 0.98065,6.48596 0.75036,2.31251 1.18201,4.69578 1.96282,7.00121 0.55012,2.75112 1.41629,5.43247 1.68234,8.23676 0.30597,2.47481 0.13921,4.97136 0.17242,7.46158 -0.0191,2.44043 -0.0409,4.88594 -0.29923,7.31535 -0.2944,2.34859 -0.87421,4.62683 -1.27865,6.95144 -0.42668,2.15593 -1.31376,4.05017 -2.23954,6.02459 -0.9864,2.07245 -2.09265,4.08145 -2.95254,6.21121 -1.18713,1.99839 -2.54234,3.76565 -4.07846,5.50807 -3.65915,3.73117 -8.58695,5.85232 -13.02309,8.4824 -2.07484,0.85388 -4.28724,1.29748 -6.53981,1.1288 -2.60067,-0.12668 -5.19362,-0.35887 -7.76217,-0.79916 -2.55748,-0.36376 -5.15093,-0.29159 -7.67801,-0.84935 -2.29736,-0.73681 -4.0279,-2.09059 -5.57822,-3.93882 -1.61327,-2.21236 -2.82956,-4.68228 -4.43651,-6.90365 -2.13267,-3.05235 -3.77043,-6.41143 -5.69328,-9.59513 -2.05144,-3.86827 -3.97907,-7.84714 -6.85756,-11.19284 0,0 7.19803,-4.32169 7.19803,-4.32169 z"
       inkscape:connector-curvature="0" />
    <path
       style="fill:#000000"
       id="path3769"
       d="m 61.228428,942.51058 c -1.91684,1.07276 -3.80575,2.19703 -5.75052,3.21828 -0.55444,0.29115 1.0507,-0.6817 1.5743,-1.02524 0.54037,-0.35455 1.07408,-0.71929 1.61759,-1.06901 3.28307,-2.11244 7.00569,-4.09919 10.24949,-5.91554 1.95783,-1.09628 -3.8948,2.22943 -5.8422,3.34414 4.29031,-2.67927 8.69897,-5.27835 13.52826,-6.8325 2.2497,-0.33024 4.36618,-1.07973 6.49772,-1.83804 2.48826,-0.87321 4.92627,-1.2082 7.49376,-0.60296 3.0885,0.96306 5.74341,2.79798 8.30559,4.722 2.394862,1.47065 4.388412,3.46418 6.692002,5.0573 2.12908,1.20337 3.93073,2.88732 6.05363,4.09038 2.00878,1.13952 3.74817,2.57581 5.48405,4.07932 1.80492,1.51481 3.0078,3.56526 4.71116,5.16599 1.40224,1.66923 3.40857,2.50488 5.28627,3.5017 2.03101,1.03683 4.02064,2.13381 6.11811,3.04469 2.17986,1.00789 4.54969,1.46169 6.7889,2.27736 1.92254,0.62376 3.7926,1.39584 5.63002,2.24049 2.02735,0.68528 4.04063,1.41934 6.09082,2.04278 2.04253,0.69399 3.84375,1.86341 5.904,2.50587 2.18468,0.54848 4.44963,0.58136 6.68863,0.62416 2.41589,0.025 4.83197,0.009 7.24792,0.003 2.42597,-0.007 4.85195,-0.009 7.27792,-0.01 2.56382,0.19958 5.05006,-0.2326 7.574,-0.59287 2.68113,-0.38494 5.38703,-0.51609 8.09163,-0.5883 3.32141,0.15536 6.59222,-0.24967 9.88391,-0.61096 3.21809,-0.0981 6.28856,-0.79779 9.33798,-1.76382 2.49792,-0.60546 4.98146,-1.26276 7.48966,-1.83054 3.3913,-0.87723 6.56622,-2.36907 9.93602,-3.33475 2.23978,-0.957 4.57998,-1.56174 6.84506,-2.43428 1.06874,-0.20902 1.97359,-0.76854 2.91777,-1.26804 0.3533,-0.1869 1.41939,-0.7344 1.07374,-0.5337 -8.34618,4.84603 -7.95359,4.61906 -5.28137,2.92761 2.71743,-1.5502 5.43486,-3.1004 8.15229,-4.6506 0.3324,-0.18273 1.32601,-0.73732 0.99721,-0.54818 -2.04048,1.17377 -4.06886,2.36943 -6.13241,3.50215 -0.38822,0.2131 0.73438,-0.49515 1.1026,-0.74119 1.56829,-1.04793 0.66639,-0.41384 2.13887,-1.48528 1.84784,-1.38399 3.64074,-2.84712 5.39498,-4.34861 1.86582,-1.85462 4.20106,-3.08861 6.11811,-4.87693 1.68909,-1.66629 3.68795,-2.9221 5.37593,-4.5937 1.84388,-2.08619 3.91617,-3.94126 5.94305,-5.84387 0.31699,-0.2506 0.6045,-0.54386 0.95097,-0.75181 2.69959,-1.62027 5.44253,-3.16735 8.17757,-4.72704 0.34332,-0.19578 1.39851,-0.7363 1.05625,-0.53866 -2.06798,1.19411 -4.14433,2.37406 -6.23456,3.52878 -0.32058,0.17709 0.60678,-0.41141 0.92373,-0.59491 2.70452,-1.56586 5.42634,-3.10166 8.1395,-4.65249 7.1654,-4.86429 -24.09526,14.87236 3.10858,-1.80598 2.01989,-1.23837 -4.10913,2.36063 -6.18788,3.49745 -0.33271,0.18195 0.61906,-0.43989 0.94655,-0.63109 2.70594,-1.57979 5.43452,-3.12048 8.15179,-4.68073 2.14347,-0.83048 4.47212,-1.15325 6.75047,-0.88422 2.43889,0.51599 4.46858,1.91979 6.60447,3.11173 1.02933,0.48902 2.09824,0.82057 3.13179,1.30014 0,0 -6.99763,4.6464 -6.99763,4.6464 l 0,0 c -1.0574,-0.45731 -2.15082,-0.82255 -3.16779,-1.3696 -2.03537,-1.16431 -4.02101,-2.47447 -6.39769,-2.80776 -2.22457,-0.071 -4.45973,0.25557 -6.46594,1.26882 2.0705,-1.21223 4.13195,-2.44005 6.2115,-3.63669 0.32856,-0.18906 -0.6325,0.41845 -0.95759,0.61342 -2.70891,1.62464 -5.47945,3.14862 -8.14395,4.84514 -1.97909,1.26011 8.10912,-4.7241 6.08648,-3.53513 -7.64822,4.4959 -5.53686,3.34444 -9.22186,5.32892 2.07898,-1.21699 4.15154,-2.44503 6.23695,-3.65098 0.31706,-0.18335 -0.61617,0.39644 -0.93141,0.5829 -2.70561,1.60039 -5.41243,3.19886 -8.13082,4.77745 -0.34167,0.19841 -1.38686,0.7568 -1.04839,0.55299 2.04179,-1.22947 4.09134,-2.44655 6.15969,-3.63079 0.34608,-0.19815 -0.66028,0.44741 -0.99042,0.67112 -2.07394,1.83653 -4.10994,3.73407 -5.96114,5.79809 -1.64213,1.74346 -3.53567,3.08021 -5.36784,4.59809 -1.80733,1.96397 -4.18824,3.09399 -6.10155,4.9368 -1.73425,1.53323 -3.5306,3.00479 -5.37327,4.39652 -4.2999,3.45622 -21.41766,12.66655 -6.2184,3.99216 -4.22851,2.61582 -8.42043,5.48241 -13.15473,7.09656 -2.25674,0.85265 -4.59971,1.45463 -6.8428,2.35184 -3.35934,1.03168 -6.5625,2.5204 -9.99219,3.3172 -2.48583,0.60677 -4.98333,1.16855 -7.4439,1.86849 -3.07205,0.92853 -6.20046,1.43751 -9.40821,1.61852 -3.31416,0.37411 -6.61847,0.65317 -9.9586,0.5822 -2.6842,0.0905 -5.36771,0.25271 -8.02567,0.6574 -2.54706,0.37143 -5.07663,0.65855 -7.65817,0.50629 -2.42558,10e-4 -4.85116,0.004 -7.27673,0.0113 -2.42086,0.007 -4.84207,0.0234 -7.26269,-0.0199 -2.29847,-0.0671 -4.62557,-0.14629 -6.84168,-0.82406 -2.01718,-0.72277 -3.84288,-1.85911 -5.89739,-2.49346 -2.05733,-0.67874 -4.12442,-1.33514 -6.14185,-2.1198 -1.84121,-0.78446 -3.67162,-1.59099 -5.5854,-2.18468 -2.28872,-0.74375 -4.61988,-1.3495 -6.82613,-2.33876 -2.09435,-0.94923 -4.10276,-2.04446 -6.1462,-3.09144 -1.95905,-1.01296 -3.96429,-1.98093 -5.41689,-3.70249 -1.64935,-1.63383 -2.90422,-3.61597 -4.68831,-5.12992 -1.68991,-1.48379 -3.45103,-2.81364 -5.40049,-3.94864 -2.09682,-1.28045 -3.96495,-2.90134 -6.084912,-4.15302 -2.27211,-1.64017 -4.30377,-3.58819 -6.6804,-5.08875 -2.49306,-1.83737 -5.07295,-3.6175 -8.11362,-4.40135 -2.49177,-0.38363 -4.87795,0.10319 -7.23621,0.97053 -2.13704,0.76062 -4.31491,1.30924 -6.51486,1.84579 -3.10617,1.17736 -11.53874,5.19974 0.90982,-1.3383 -1.9479,1.12413 -16.88653,9.78111 -2.85896,1.5782 0.53569,-0.31325 -1.07093,0.62784 -1.59446,0.96103 -3.87213,2.46439 -7.5254,5.23264 -11.72789,7.19101 0,0 6.52491,-5.27896 6.52491,-5.27896 z"
       inkscape:connector-curvature="0" />
    <path
       style="fill:#000000"
       id="path3771"
       d="m 120.71241,875.27925 c -1.3987,-2.85529 -1.55558,-6.29544 -3.31771,-8.96982 -0.0739,-0.10408 -0.33334,-0.25027 -0.22174,-0.31224 8.16292,-4.53192 6.32806,-5.54462 9.08932,-1.18931 2.61448,2.21383 -2.62004,2.39122 -7.34048,4.03997 -0.27931,0.0976 -0.27202,-0.52601 -0.42576,-0.77879 -0.13591,-0.22349 -0.29475,-0.43219 -0.44213,-0.64828 -0.14896,-0.24632 -0.29791,-0.49265 -0.44687,-0.73897 -0.56482,-0.59052 -0.90401,-1.3613 -1.54068,-1.88892 -0.14637,-0.1213 -0.30598,-0.30489 -0.49488,-0.28349 -0.15258,0.0173 -0.4101,0.44101 -0.27366,0.37057 2.36249,-1.21979 4.66112,-2.55945 6.99169,-3.83917 -0.34208,0.22584 0.48008,1.58711 0.29304,1.68098 -7.71951,3.87381 -5.80523,5.92559 -7.90236,3.45821 -0.0316,-0.0334 -0.13561,-0.0792 -0.0947,-0.1002 8.04667,-4.13553 5.7593,-5.90061 8.43731,-3.11486 0.90619,0.94264 1.7132,1.9285 2.52693,2.95208 1.6657,1.85644 3.09885,3.79388 5.35271,4.95198 1.08193,0.40834 2.23958,0.7592 3.41322,0.57247 0.3363,-0.0535 1.26415,-0.4902 0.97143,-0.3162 -7.41115,4.40515 -8.10005,5.21461 -5.76129,2.8887 0.51019,-0.62781 1.75137,-4.3815 0.19104,-4.49361 -0.47338,3.09201 -0.19091,0.38369 6.74102,-3.39168 0.38811,-0.21137 -0.60836,0.64991 -0.83751,1.02779 -0.689,1.13621 -0.1176,0.33669 -0.95161,1.41007 -0.51606,5.28546 -10.3568,6.39363 -10.5062,1.44235 1.90254,-4.55798 7.19809,-4.93982 11.26978,-5.53684 0.82402,-3.01724 0.0676,-0.14455 -7.41238,4.94746 0,0 6.83033,-4.93921 6.83033,-4.93921 l 0,0 c -6.09213,5.13092 -3.62591,6.13059 -6.18921,5.04261 -0.7227,0.0762 -1.46029,0.14116 -2.16595,0.32285 -0.2705,0.0696 -1.02868,0.42079 -0.79296,0.27094 5.99226,-3.80932 9.04961,-4.69144 6.06207,-3.78627 -0.39248,0.45491 -0.0503,0.83211 0.40933,1.16325 2.47197,1.78077 8.22224,-4.07157 -5.2687,4.32777 2.88745,-2.6338 2.65329,-9.50784 9.90615,-6.89334 1.70089,1.49761 1.15633,3.88062 0.42856,5.75401 -2.62264,4.74347 -8.68123,6.90468 -13.36736,4.77331 -2.25882,-1.31805 -3.81139,-3.29182 -5.51376,-5.24009 -0.80608,-1.0003 -1.60454,-1.9555 -2.50891,-2.86804 -0.23474,-0.23687 -0.94786,-0.48279 -0.70427,-0.71055 6.17677,-5.77514 5.17099,-7.19007 6.78328,-4.79829 2.01735,2.56347 0.53728,0.43346 -6.75846,4.98617 -0.0556,0.0347 -0.0471,-0.12309 -0.0599,-0.18742 -0.14162,-0.71183 -0.35805,-1.39261 -0.50857,-2.10517 6.934,-4.43182 6.70434,-6.83411 10.28648,-2.0748 0.0988,0.16243 1.37754,2.02781 1.28441,2.10964 -6.97888,6.13205 -5.00739,7.0001 -7.19428,4.47666 -2.75942,-4.55526 -3.02203,-2.44855 5.49552,-7.30573 0.11513,-0.0657 0.13225,0.22973 0.19837,0.3446 1.62092,2.81712 1.95959,6.16357 3.36251,9.08453 0,0 -7.32213,4.11232 -7.32213,4.11232 z"
       inkscape:connector-curvature="0" />
    <path
       style="fill:#000000"
       id="path3791"
       d="m 232.02043,870.73222 c 1.83461,3.1641 3.79649,6.23976 5.57739,9.43487 1.62106,1.75343 2.20576,4.16828 3.66903,5.99743 1.43548,1.09609 3.13667,2.30432 4.99011,1.67802 -2.22378,1.2195 -4.41684,2.49676 -6.67134,3.65849 -0.10143,0.0523 0.4666,-0.0987 0.89369,-1.21289 0.36862,-0.96166 0.41869,-2.0198 0.50678,-3.03207 -0.15449,-2.22758 0.34529,-4.11448 1.26473,-6.10092 1.06948,-1.59152 1.7515,-3.25039 2.10623,-5.12849 0.32216,-2.29081 0.31533,-4.61093 0.32832,-6.91938 0,0 7.47722,-3.80582 7.47722,-3.80582 l 0,0 c -0.007,2.34656 0.003,4.70079 -0.25689,7.03617 -0.28628,1.92441 -0.73652,3.78111 -2.00486,5.3192 -0.99659,2.27205 -1.62995,3.13794 -1.40599,5.84295 -0.39728,6.46307 -1.3644,5.39772 -8.97013,9.40135 -2.11058,0.0358 -3.96102,-1.02368 -5.48257,-2.43323 -1.44079,-1.90752 -2.09742,-4.30167 -3.69189,-6.13298 -1.76583,-3.19854 -3.66618,-6.30981 -5.60022,-9.40945 0,0 7.27039,-4.19325 7.27039,-4.19325 z"
       inkscape:connector-curvature="0" />
    <path
       style="fill:#000000"
       id="path3793"
       d="m 237.03861,881.33791 c -0.3915,-0.52964 -2.54827,-5.29476 -1.93673,-5.65703 2.50411,-1.48342 5.15928,-2.69559 7.73892,-4.04339 1.23148,1.18583 1.57803,3.01199 2.9936,4.03542 2.83378,-1.36594 -4.41068,2.38104 -6.71633,3.35346 -0.27972,0.11797 0.0564,-0.69551 -0.1732,-0.89412 -0.14773,-0.12779 -0.20298,0.34872 -0.21946,0.54336 10.45038,-6.22177 7.06591,-5.99455 6.47205,-2.5102 -0.17912,1.05094 -0.2163,2.12051 -0.2687,3.18278 -0.10072,4.01143 0.57026,2.24869 -7.66388,4.74265 -0.27472,0.0832 -0.11089,-0.564 -0.19017,-0.83989 -0.0908,-0.31602 -0.21289,-0.6222 -0.31934,-0.9333 -1.15127,-1.80597 -2.11055,-3.59838 -2.25687,-5.75966 0.0758,-1.04616 0.53522,-2.16975 1.55629,-2.64621 8.23113,-3.84092 6.89303,-6.27651 8.35025,-2.68272 0.22809,2.35046 -0.47607,4.62828 -1.03185,6.88272 -0.0433,0.19172 -1.56436,4.61948 -0.10133,3.3958 2.17621,-2.35045 -0.0401,0.13769 -6.10693,3.20829 -0.28463,0.14406 0.46091,-0.44405 0.6582,-0.69474 0.72711,-0.92389 1.04581,-1.9381 1.3708,-3.04747 0,0 7.56254,-3.61741 7.56254,-3.61741 l 0,0 c -1.09616,4.93323 -4.65817,8.15346 -10.31129,9.11929 -2.06846,-0.78933 -1.22445,-3.09926 -0.63139,-4.73603 0.50979,-2.13504 1.18538,-4.23388 1.19886,-6.45283 -0.22932,-3.0062 -0.12082,-0.28901 6.89323,-4.45776 0.17863,-0.10617 -0.34763,0.2283 -0.52838,0.33083 -0.72581,0.41173 -1.23315,0.64925 -1.39766,1.54993 0.0118,2.11184 1.02852,3.78197 2.12767,5.53812 0.2403,0.64656 0.68856,1.77752 0.58437,1.85647 -8.44823,6.40218 -7.3973,7.0658 -7.25889,3.02289 0.24318,-6.67985 -0.23188,-4.65262 7.88417,-9.74967 4.58581,1.61797 -2.77779,9.89198 -6.63279,6.76516 -1.18558,-1.10557 -1.75127,-2.64809 -2.84567,-3.78099 14.00981,-8.89482 6.1205,-6.36634 6.72076,-3.19069 0.2778,1.46969 1.11183,2.75844 1.80127,4.05462 0,0 -7.32212,4.11232 -7.32212,4.11232 z"
       inkscape:connector-curvature="0" />
    <path
       style="fill:#000000"
       id="path3795"
       d="m 119.21035,857.44364 c 1.19916,3.18788 2.74946,6.24101 4.33041,9.25532 1.44844,2.35204 3.31594,4.42268 5.03805,6.58351 1.39564,1.7502 2.37368,3.75076 3.40359,5.72314 0.80698,2.00295 1.23588,3.12247 3.44192,1.9331 -14.75759,8.25341 -7.17214,4.5196 -5.62245,2.93289 0.99339,-1.01712 1.79389,-2.36598 2.61918,-3.5204 1.00203,-1.27941 1.72297,-2.69915 2.30737,-4.20483 0,0 7.60256,-3.54822 7.60256,-3.54822 l 0,0 c -0.52618,1.57505 -1.16539,3.08752 -2.21467,4.39852 -3.46538,5.25627 -3.9365,5.43957 -11.33249,9.11466 -2.29207,0.43976 -3.39258,-0.85332 -4.09772,-2.93602 -0.99919,-1.93021 -1.94957,-3.8839 -3.31383,-5.59318 -1.72887,-2.22143 -3.64635,-4.31251 -5.0881,-6.7336 -1.5855,-3.03626 -3.10356,-6.11996 -4.39594,-9.29257 0,0 7.32212,-4.11232 7.32212,-4.11232 z"
       inkscape:connector-curvature="0" />
    <path
       style="fill:#000000"
       id="path3797"
       d="m 131.24902,878.56686 c 1.6801,-2.36684 2.99158,-4.96053 4.74266,-7.27456 0,0 7.69414,-3.28586 7.69414,-3.28586 l 0,0 c -1.87298,2.20012 -3.06739,4.81571 -4.77097,7.14328 0,0 -7.66583,3.41714 -7.66583,3.41714 z"
       inkscape:connector-curvature="0" />
    <path
       style="fill:#000000"
       id="path3799"
       d="m 130.28521,878.60826 c 1.72463,-1.91887 3.56998,-3.72094 5.32424,-5.61154 0,0 7.68683,-3.22473 7.68683,-3.22473 l 0,0 c -1.71921,1.91117 -3.61623,3.64825 -5.26131,5.62621 0,0 -7.74976,3.21006 -7.74976,3.21006 z"
       inkscape:connector-curvature="0" />
    <path
       style="fill:#000000"
       id="path3809"
       d="m 74.197278,800.90529 c 0.77734,-3.97585 1.59371,-7.96516 2.79365,-11.83787 1.00612,-2.62516 2.49414,-4.92078 4.64131,-6.72529 2.60752,-2.53928 5.8289,-4.26575 8.96927,-6.04112 -0.2506,0.12858 -0.98238,0.54747 -0.75179,0.38575 1.38673,-0.97256 2.95511,-1.65634 4.44323,-2.46528 0,0 -1.87113,1.49474 -1.87113,1.49474 l 0,0 c 0.29174,-0.19915 1.21223,-0.70329 0.87523,-0.59744 -1.68076,0.52796 -2.62179,2.73844 -4.55488,2.68074 0.20554,-0.13394 0.82637,-0.5291 0.61663,-0.40183 -1.94769,1.18189 -3.87659,2.44056 -5.50326,4.04804 -2.16815,1.76342 -3.67896,3.99194 -4.70707,6.60406 -1.2321,3.84811 -2.02606,7.83235 -2.8012,11.79349 0,0 -2.14999,1.06201 -2.14999,1.06201 z"
       inkscape:connector-curvature="0" />
    <path
       style="fill:#000000"
       id="path3811"
       d="m 119.58222,762.35779 c 2.00955,-2.87235 4.33522,-5.48952 6.6081,-8.14925 0.29863,-0.31092 0.59726,-0.62184 0.89589,-0.93277 0,0 2.21168,-0.91974 2.21168,-0.91974 l 0,0 c -0.30178,0.30654 -0.60356,0.61309 -0.90534,0.91963 -2.26204,2.66485 -4.63257,5.24406 -6.60256,8.14411 0,0 -2.20777,0.93802 -2.20777,0.93802 z"
       inkscape:connector-curvature="0" />
    <path
       style="fill:#000000"
       id="path3813"
       d="m 118.621,800.08502 c 5.30861,1.52199 10.35143,3.55616 15.30758,5.97664 3.84812,1.73522 7.33669,4.10692 10.82164,6.46015 0,0 -2.01003,1.28525 -2.01003,1.28525 l 0,0 c -3.47359,-2.34781 -6.94951,-4.71426 -10.78726,-6.44304 -4.95036,-2.42606 -9.99961,-4.4369 -15.31256,-5.93516 0,0 1.98063,-1.34384 1.98063,-1.34384 z"
       inkscape:connector-curvature="0" />
    <path
       style="fill:#000000"
       id="path3815"
       d="m 183.53473,840.72519 c 1.5607,-4.85021 2.51096,-9.82607 2.3319,-14.92225 -0.1424,-4.12564 -1.62574,-7.94301 -3.56958,-11.52821 -0.24641,-0.44359 -0.49283,-0.88718 -0.73924,-1.33078 0,0 2.07214,-1.19143 2.07214,-1.19143 l 0,0 c 0.24569,0.44495 0.49137,0.8899 0.73705,1.33485 1.95175,3.62138 3.45922,7.47017 3.60513,11.63289 0.20019,5.11609 -0.74466,10.106 -2.27093,14.98748 0,0 -2.16647,1.01745 -2.16647,1.01745 z"
       inkscape:connector-curvature="0" />
    <path
       style="fill:#000000"
       id="path3817"
       d="m 221.48891,773.74042 c 5.17281,3.4036 9.81129,7.49979 14.2279,11.8175 3.83237,3.55767 7.13838,7.55331 10.08576,11.85751 1.22399,1.98692 2.27461,4.07765 3.33025,6.15833 0,0 -2.07843,1.18461 -2.07843,1.18461 l 0,0 c -1.04441,-2.07473 -2.08302,-4.16022 -3.29942,-6.1397 -2.93755,-4.29016 -6.22289,-8.28261 -10.04322,-11.82904 -4.40449,-4.31305 -9.03839,-8.40387 -14.23488,-11.75256 0,0 2.01204,-1.29665 2.01204,-1.29665 z"
       inkscape:connector-curvature="0" />
    <path
       style="fill:#000000"
       id="path3819"
       d="m 294.44534,830.00562 c 0.52877,4.12292 1.91196,8.01462 3.18362,11.94467 0.6184,2.15871 0.34168,1.09708 0.83691,3.1831 0,0 -2.10329,1.13366 -2.10329,1.13366 l 0,0 c -0.48429,-2.07612 -0.21284,-1.01896 -0.82134,-3.16968 -1.26611,-3.94517 -2.64941,-7.84875 -3.21882,-11.9766 0,0 2.12292,-1.11515 2.12292,-1.11515 z"
       inkscape:connector-curvature="0" />
    <path
       style="fill:#000000"
       id="path3821"
       d="m 151.07346,930.21366 c 3.4568,3.15954 7.27273,5.87427 11.01841,8.67085 2.05858,1.40949 1.08088,0.70301 2.93989,2.11001 0,0 -2.0178,1.2749 -2.0178,1.2749 l 0,0 c -1.84995,-1.40255 -0.87543,-0.69467 -2.93041,-2.11421 -3.74831,-2.80485 -7.55333,-5.5424 -11.04193,-8.67488 0,0 2.03184,-1.26667 2.03184,-1.26667 z"
       inkscape:connector-curvature="0" />
    <path
       style="fill:#000000"
       id="path3823"
       d="m 266.26045,974.84966 c 0.57887,-0.24831 1.15774,-0.49662 1.73661,-0.74493 0,0 -1.8691,1.47675 -1.8691,1.47675 l 0,0 c -0.58484,0.24848 -1.16968,0.49695 -1.75452,0.74543 0,0 1.88701,-1.47725 1.88701,-1.47725 z"
       inkscape:connector-curvature="0" />
    <path
       style="fill:#000000"
       id="path3827"
       d="m 42.265848,873.7868 c -0.0699,4.49002 0.0928,9.01495 0.99869,13.42008 0.94123,3.40039 1.60795,6.90179 3.01785,10.14965 0.36559,1.08755 0.9782,1.91804 1.76458,2.72125 0,0 -2.05004,1.25134 -2.05004,1.25134 l 0,0 c -0.79325,-0.83234 -1.42948,-1.68672 -1.80131,-2.79951 -1.41254,-3.26643 -2.08014,-6.78358 -3.02287,-10.20246 -0.92299,-4.41387 -1.0794,-8.95144 -1.04088,-13.45303 0,0 2.13398,-1.08732 2.13398,-1.08732 z"
       inkscape:connector-curvature="0" />
    <path
       style="fill:#000000"
       id="path3829"
       d="m 31.098338,837.47019 c -2.1457,-3.41693 -3.86276,-7.07943 -5.60445,-10.7127 -1.46071,-2.78113 -1.90421,-5.60262 -1.70031,-8.68674 0,0 2.14193,-1.07282 2.14193,-1.07282 l 0,0 c -0.22,3.04946 0.18004,5.8296 1.62909,8.58531 1.73297,3.63031 3.44398,7.29233 5.61099,10.68888 0,0 -2.07725,1.19807 -2.07725,1.19807 z"
       inkscape:connector-curvature="0" />
    <path
       style="fill:#000000"
       id="path3831"
       d="m 149.92597,767.48924 c 0.57909,-0.31453 1.15818,-0.62906 1.73727,-0.9436 -0.0199,0.004 -0.0399,0.008 -0.0598,0.0127 1.39155,-0.76564 2.7793,-1.53826 4.17467,-2.29693 2.08395,-1.13305 2.90174,-1.29887 1.93251,-1.08221 0,0 2.21625,-0.85714 2.21625,-0.85714 l 0,0 c -3.94171,2.33777 -7.88692,4.41433 -11.87131,6.66337 0,0 1.87043,-1.49617 1.87043,-1.49617 z"
       inkscape:connector-curvature="0" />
    <path
       style="fill:#000000"
       id="path3833"
       d="m 187.02715,837.24409 c 0.84689,-3.63865 1.78582,-7.29699 1.39443,-11.04716 -0.38563,-2.53696 -1.65856,-4.7886 -2.3051,-7.26108 -0.19603,-1.0423 -0.38014,-2.10945 -0.79727,-3.0927 -0.0685,-0.16154 -0.13992,-0.3295 -0.25923,-0.45817 -0.0401,-0.0433 -0.23069,0.012 -0.17673,-0.012 0.63323,-0.28137 1.28785,-0.51189 1.93178,-0.76783 -0.28688,2.15257 0.27634,4.37184 0.51208,6.52461 0.25334,2.48808 0.30554,4.98976 0.33883,7.48853 0.0216,2.43188 0.0157,4.8639 0.0134,7.29584 -0.0401,1.97797 0.10846,3.96057 -0.14049,5.92598 0,0 -2.15298,1.0605 -2.15298,1.0605 l 0,0 c 0.2856,-1.9526 0.10892,-3.92937 0.15759,-5.89845 0.002,-2.431 0.008,-4.86208 -0.0116,-7.29303 -0.0312,-2.49197 -0.0793,-4.9869 -0.32749,-7.46861 -0.23767,-2.19344 -0.77628,-4.424 -0.58081,-6.62356 0.75585,-0.53064 1.46441,-1.13601 2.26754,-1.59193 0.24488,-0.13901 0.42335,0.39636 0.53212,0.65608 0.41481,0.99045 0.61585,2.06093 0.80232,3.1118 0.64005,2.48741 1.92137,4.74832 2.31121,7.29757 0.41821,3.77412 -0.51627,7.44879 -1.34748,11.11787 0,0 -2.16213,1.03575 -2.16213,1.03575 z"
       inkscape:connector-curvature="0" />
    <path
       style="fill:#000000"
       id="path3835"
       d="m 115.51804,800.3958 c -2.78649,-2.08275 -5.81493,-3.69246 -9.14192,-4.694 -1.78103,-0.39245 -0.91826,-0.28761 -2.58298,-0.35571 0,0 1.94721,-1.39834 1.94721,-1.39834 l 0,0 c 1.68674,0.11744 0.81488,-0.007 2.61031,0.40719 3.33176,1.03613 6.3584,2.67557 9.17793,4.73393 0,0 -2.01055,1.30693 -2.01055,1.30693 z"
       inkscape:connector-curvature="0" />
    <path
       style="fill:#000000"
       id="path3837"
       d="m 237.26186,816.87525 c 1.6539,-1.3395 3.32961,-2.64258 4.95839,-4.013 0,0 2.20185,-0.8905 2.20185,-0.8905 l 0,0 c -1.61645,1.37208 -3.27551,2.68079 -4.94602,3.98635 0,0 -2.21422,0.91715 -2.21422,0.91715 z"
       inkscape:connector-curvature="0" />
    <path
       style="fill:#000000"
       id="path3839"
       d="m 233.62667,821.72218 c 2.57957,-3.05854 5.31587,-5.94494 8.23455,-8.6793 2.00699,-1.41421 3.53801,-3.45642 5.67295,-4.69712 1.02938,-0.59822 2.08756,-1.14547 3.13134,-1.71821 0.0653,-0.0313 2.13669,-1.05019 2.2429,-0.99011 0.33822,0.19131 -1.18581,0.87376 -1.04806,0.51042 0.01,-0.0251 2.91994,-1.97676 3.1752,-2.15491 1.76672,-1.14145 2.99332,-2.77517 4.36424,-4.32099 1.15871,-1.36918 2.20446,-2.81663 3.19333,-4.31377 0,0 2.19733,-0.96382 2.19733,-0.96382 l 0,0 c -0.97851,1.5137 -2.03029,2.95946 -3.17716,4.34607 -1.38827,1.54313 -2.57758,3.21827 -4.34769,4.37513 -2.70352,1.86619 -5.39596,3.79072 -8.47276,5.00857 0.32421,-0.21694 1.33035,-0.8064 0.97262,-0.65083 -2.25617,0.98116 -3.6106,3.43251 -5.70019,4.6653 -2.92045,2.72462 -5.68461,5.57849 -8.22438,8.66641 0,0 -2.21422,0.91716 -2.21422,0.91716 z"
       inkscape:connector-curvature="0" />
    <path
       style="fill:#000000"
       id="path3841"
       d="m 238.23431,818.37589 c -0.16612,0.0796 -0.65699,0.33254 -0.49837,0.23886 3.1197,-1.8425 5.22813,-3.10009 8.26475,-5.38144 2.08095,-1.80718 4.17073,-3.62192 6.09108,-5.60147 1.65403,-1.60675 3.12911,-3.37775 4.8018,-4.96739 1.39905,-1.10707 2.4385,-2.5619 3.45052,-4.0122 0,0 2.20159,-0.95946 2.20159,-0.95946 l 0,0 c -0.9953,1.46767 -2.03317,2.94619 -3.43124,4.06046 -1.69968,1.56369 -3.14883,3.35909 -4.81244,4.95758 -1.90168,2.0082 -4.02303,3.80091 -6.08425,5.64069 -4.05857,3.04366 -7.90502,5.27184 -11.8477,7.53264 0,0 1.86426,-1.50827 1.86426,-1.50827 z"
       inkscape:connector-curvature="0" />
    <path
       style="fill:#000000"
       id="path3843"
       d="m 99.068128,999.55293 c 3.994892,0.0666 7.967382,0.0573 11.942922,-0.34931 0.57909,-0.11978 1.15819,-0.23955 1.73728,-0.35933 0,0 -1.90123,1.43951 -1.90123,1.43951 l 0,0 c -0.58245,0.1127 -1.1649,0.2254 -1.74735,0.338 -3.98507,0.396 -7.96916,0.3776 -11.971792,0.3408 0,0 1.94017,-1.40967 1.94017,-1.40967 z"
       inkscape:connector-curvature="0" />
    <path
       style="fill:#000000"
       id="path3845"
       d="m 244.80458,1000.3643 c -5.16254,1.7696 -10.36852,3.4172 -15.54802,5.1442 0,0 1.85891,-1.4442 1.85891,-1.4442 l 0,0 c 5.18885,-1.7279 10.41126,-3.3602 15.56738,-5.17701 0,0 -1.87827,1.47701 -1.87827,1.47701 z"
       inkscape:connector-curvature="0" />
    <path
       style="fill:#000000"
       id="path3847"
       d="m 262.46894,979.53613 c -1.09873,0.52662 -0.64881,0.34519 1.13264,-0.9139 0,0 2.21356,-0.87418 2.21356,-0.87418 l 0,0 c -2.75016,1.97972 -1.04848,0.82726 -5.21046,3.29635 0,0 1.86426,-1.50827 1.86426,-1.50827 z"
       inkscape:connector-curvature="0" />
    <path
       style="fill:#000000"
       id="path3849"
       d="m 146.33425,866.41962 c 3.55226,0.27439 7.04391,0.80183 10.53583,1.48807 2.39757,0.46702 4.82292,0.53501 7.19634,1.11364 2.16685,0.73403 4.03806,0.32568 6.03289,-0.65766 0,0 -1.87687,1.49469 -1.87687,1.49469 l 0,0 c -2.04672,0.92959 -3.94753,1.26947 -6.13127,0.52793 -2.36891,-0.56357 -4.79717,-0.61837 -7.18257,-1.11107 -3.48865,-0.69099 -6.98211,-1.19844 -10.53174,-1.47033 0,0 1.95739,-1.38527 1.95739,-1.38527 z"
       inkscape:connector-curvature="0" />
    <path
       style="fill:#000000"
       id="path3851"
       d="m 146.3423,870.21178 c 3.43692,0.76799 6.90706,1.51449 10.21302,2.74795 2.15139,0.90523 4.38893,1.60311 6.73747,1.50077 0.38206,-0.045 0.76984,-0.0551 1.14618,-0.1349 0.26751,-0.0567 1.73603,-0.56395 1.98938,-0.68505 0.29207,-0.13961 1.15203,-0.546 0.8313,-0.50208 -0.49126,0.0673 -0.88615,0.67769 -1.37146,0.57604 -0.29882,-0.0626 0.34609,-0.50305 0.51913,-0.75458 1.19153,-1.61143 1.74123,-3.56083 2.64707,-5.32614 0,0 2.1891,-0.98507 2.1891,-0.98507 l 0,0 c -0.94361,1.75253 -1.44462,3.72715 -2.6356,5.34545 -1.45531,2.36399 -4.57427,3.60872 -7.25178,3.88169 -2.36837,0.0301 -4.61607,-0.65651 -6.78495,-1.57928 -3.30849,-1.21241 -6.76463,-1.97771 -10.20234,-2.72357 0,0 1.97348,-1.36123 1.97348,-1.36123 z"
       inkscape:connector-curvature="0" />
    <path
       style="fill:#000000"
       id="path3853"
       d="m 163.34626,871.40315 c 1.36943,-1.44663 2.63409,-2.97797 3.86879,-4.53895 0,0 2.18611,-0.93608 2.18611,-0.93608 l 0,0 c -1.22628,1.56663 -2.48991,3.09549 -3.84068,4.55787 0,0 -2.21422,0.91716 -2.21422,0.91716 z"
       inkscape:connector-curvature="0" />
    <path
       style="fill:#000000"
       id="path3855"
       d="m 165.70443,872.16427 c 2.51678,-0.45914 5.0674,-1.15261 7.2569,-2.52968 0.17683,-0.11121 -0.39839,0.12584 -0.59759,0.18875 0,0 2.22004,-0.87242 2.22004,-0.87242 l 0,0 c -3.41684,2.13311 -6.71154,4.16719 -10.80169,4.64686 0,0 1.92234,-1.43351 1.92234,-1.43351 z"
       inkscape:connector-curvature="0" />
    <path
       style="fill:#000000"
       id="path3857"
       d="m 75.270658,912.39792 c -0.1256,-1.90847 -0.34124,-3.80945 -0.53494,-5.71177 0,0 2.10922,-1.10185 2.10922,-1.10185 l 0,0 c 0.19474,1.90754 0.406,3.81367 0.56252,5.72487 0,0 -2.1368,1.08875 -2.1368,1.08875 z"
       inkscape:connector-curvature="0" />
  </g>
</svg>
